<svg width="99" height="24" viewBox="0 0 99 24" fill="none" xmlns="http://www.w3.org/2000/svg">
<path fill-rule="evenodd" clip-rule="evenodd" d="M3 14C3 13.4477 3.44772 13 4 13L16 13C17.6569 13 19 11.6569 19 10L19 6C19 5.44771 19.4477 5 20 5C20.5523 5 21 5.44771 21 6L21 10C21 12.7614 18.7614 15 16 15L4 15C3.44772 15 3 14.5523 3 14Z" fill="white" fill-opacity="0.5"/>
<path fill-rule="evenodd" clip-rule="evenodd" d="M3.29289 14.7071C2.90237 14.3166 2.90237 13.6834 3.29289 13.2929L7.29289 9.29289C7.68342 8.90237 8.31658 8.90237 8.70711 9.29289C9.09763 9.68342 9.09763 10.3166 8.70711 10.7071L5.41421 14L8.70711 17.2929C9.09763 17.6834 9.09763 18.3166 8.70711 18.7071C8.31658 19.0976 7.68342 19.0976 7.29289 18.7071L3.29289 14.7071Z" fill="white" fill-opacity="0.5"/>
<path d="M39.95 17.584C39.2127 17.584 38.5267 17.4627 37.892 17.22C37.2667 16.968 36.7207 16.618 36.254 16.17C35.7967 15.7127 35.4373 15.1853 35.176 14.588C34.924 13.9813 34.798 13.3187 34.798 12.6C34.798 11.8813 34.924 11.2233 35.176 10.626C35.4373 10.0193 35.7967 9.492 36.254 9.044C36.7207 8.58667 37.2667 8.23667 37.892 7.994C38.5173 7.742 39.2033 7.616 39.95 7.616C40.6873 7.616 41.3687 7.742 41.994 7.994C42.6193 8.23667 43.1607 8.582 43.618 9.03C44.0847 9.478 44.444 10.0053 44.696 10.612C44.9573 11.2187 45.088 11.8813 45.088 12.6C45.088 13.3187 44.9573 13.9813 44.696 14.588C44.444 15.1947 44.0847 15.722 43.618 16.17C43.1607 16.618 42.6193 16.968 41.994 17.22C41.3687 17.4627 40.6873 17.584 39.95 17.584ZM39.95 16.66C40.538 16.66 41.0793 16.562 41.574 16.366C42.078 16.1607 42.512 15.876 42.876 15.512C43.2493 15.1387 43.5387 14.7093 43.744 14.224C43.9493 13.7293 44.052 13.188 44.052 12.6C44.052 12.012 43.9493 11.4753 43.744 10.99C43.5387 10.4953 43.2493 10.066 42.876 9.702C42.512 9.32867 42.078 9.044 41.574 8.848C41.0793 8.64267 40.538 8.54 39.95 8.54C39.362 8.54 38.816 8.64267 38.312 8.848C37.808 9.044 37.3693 9.32867 36.996 9.702C36.632 10.066 36.3427 10.4953 36.128 10.99C35.9227 11.4753 35.82 12.012 35.82 12.6C35.82 13.1787 35.9227 13.7153 36.128 14.21C36.3427 14.7047 36.632 15.1387 36.996 15.512C37.3693 15.876 37.808 16.1607 38.312 16.366C38.816 16.562 39.362 16.66 39.95 16.66ZM48.3771 17.5V10.752L48.6291 11.018H45.5911V10.15H52.1571V11.018H49.1191L49.3711 10.752V17.5H48.3771ZM53.4543 17.5V10.15H56.7023C57.533 10.15 58.1863 10.3087 58.6623 10.626C59.1476 10.9433 59.3903 11.41 59.3903 12.026C59.3903 12.6233 59.1616 13.0853 58.7043 13.412C58.247 13.7293 57.645 13.888 56.8983 13.888L57.0943 13.594C57.9716 13.594 58.6156 13.7573 59.0263 14.084C59.437 14.4107 59.6423 14.882 59.6423 15.498C59.6423 16.1327 59.409 16.6273 58.9423 16.982C58.485 17.3273 57.771 17.5 56.8003 17.5H53.4543ZM54.4203 16.716H56.7583C57.3836 16.716 57.855 16.618 58.1723 16.422C58.499 16.2167 58.6623 15.89 58.6623 15.442C58.6623 14.994 58.5176 14.6673 58.2283 14.462C57.939 14.2567 57.4816 14.154 56.8563 14.154H54.4203V16.716ZM54.4203 13.412H56.6323C57.2016 13.412 57.6356 13.3047 57.9343 13.09C58.2423 12.8753 58.3963 12.5627 58.3963 12.152C58.3963 11.7413 58.2423 11.4333 57.9343 11.228C57.6356 11.0227 57.2016 10.92 56.6323 10.92H54.4203V13.412ZM64.9819 17.57C64.2166 17.57 63.5446 17.4113 62.9659 17.094C62.3872 16.7673 61.9346 16.324 61.6079 15.764C61.2812 15.1947 61.1179 14.546 61.1179 13.818C61.1179 13.09 61.2719 12.446 61.5799 11.886C61.8972 11.326 62.3266 10.8873 62.8679 10.57C63.4186 10.2433 64.0346 10.08 64.7159 10.08C65.4066 10.08 66.0179 10.2387 66.5499 10.556C67.0912 10.864 67.5159 11.3027 67.8239 11.872C68.1319 12.432 68.2859 13.0807 68.2859 13.818C68.2859 13.8647 68.2812 13.916 68.2719 13.972C68.2719 14.0187 68.2719 14.07 68.2719 14.126H61.8739V13.384H67.7399L67.3479 13.678C67.3479 13.146 67.2312 12.6747 66.9979 12.264C66.7739 11.844 66.4659 11.5173 66.0739 11.284C65.6819 11.0507 65.2292 10.934 64.7159 10.934C64.2119 10.934 63.7592 11.0507 63.3579 11.284C62.9566 11.5173 62.6439 11.844 62.4199 12.264C62.1959 12.684 62.0839 13.1647 62.0839 13.706V13.86C62.0839 14.42 62.2052 14.9147 62.4479 15.344C62.6999 15.764 63.0452 16.0953 63.4839 16.338C63.9319 16.5713 64.4406 16.688 65.0099 16.688C65.4579 16.688 65.8732 16.6087 66.2559 16.45C66.6479 16.2913 66.9839 16.0487 67.2639 15.722L67.8239 16.366C67.4972 16.758 67.0866 17.0567 66.5919 17.262C66.1066 17.4673 65.5699 17.57 64.9819 17.57ZM71.4181 17.5V10.752L71.6701 11.018H68.6321V10.15H75.1981V11.018H72.1601L72.4121 10.752V17.5H71.4181ZM76.4952 17.5V10.15H77.4892V15.988L82.4032 10.15H83.2852V17.5H82.2912V11.648L77.3912 17.5H76.4952ZM87.3939 17.5V10.752L87.6459 11.018H84.6079V10.15H91.1739V11.018H88.1359L88.3879 10.752V17.5H87.3939ZM95.6351 12.74C96.5591 12.7493 97.2591 12.9547 97.7351 13.356C98.2204 13.7573 98.4631 14.336 98.4631 15.092C98.4631 15.876 98.2018 16.478 97.6791 16.898C97.1658 17.318 96.4191 17.5233 95.4391 17.514L92.4711 17.5V10.15H93.4651V12.712L95.6351 12.74ZM95.3831 16.758C96.0644 16.7673 96.5778 16.632 96.9231 16.352C97.2778 16.0627 97.4551 15.6427 97.4551 15.092C97.4551 14.5413 97.2824 14.14 96.9371 13.888C96.5918 13.6267 96.0738 13.4913 95.3831 13.482L93.4651 13.454V16.73L95.3831 16.758Z" fill="white" fill-opacity="0.5"/>
</svg>
